<svg width="76" height="77" viewBox="0 0 76 77" fill="none" xmlns="http://www.w3.org/2000/svg">
<path d="M76 67C76 72.5228 71.5228 77 66 77H10C4.47715 77 0 72.5228 0 67V30H76V67Z" fill="url(#paint0_linear_38_51)"/>
<path d="M0 18C0 12.4772 4.47715 8 10 8H66C71.5229 8 76 12.4772 76 18V30H0V18Z" fill="url(#paint1_linear_38_51)"/>
<rect x="1.5" y="9.5" width="73" height="66" rx="8.5" stroke="black" stroke-width="3"/>
<rect x="12" y="35" width="12" height="12" rx="4" fill="url(#paint2_linear_38_51)" stroke="black" stroke-width="2"/>
<rect x="32" y="35" width="12" height="12" rx="4" fill="url(#paint3_linear_38_51)" stroke="black" stroke-width="2"/>
<rect x="52" y="35" width="12" height="12" rx="4" fill="url(#paint4_linear_38_51)" stroke="black" stroke-width="2"/>
<rect x="12" y="54" width="12" height="12" rx="4" fill="url(#paint5_linear_38_51)" stroke="black" stroke-width="2"/>
<rect x="32" y="54" width="12" height="12" rx="4" fill="url(#paint6_linear_38_51)" stroke="black" stroke-width="2"/>
<path d="M2 30H53" stroke="black" stroke-width="2" stroke-linecap="round"/>
<path d="M59 30L74 30" stroke="black" stroke-width="2" stroke-linecap="round"/>
<path d="M21.38 20.38C18.9623 20.38 17 18.4177 17 16V5.38C17 2.96229 18.9623 1 21.38 1C23.7977 1 25.76 2.96228 25.76 5.38V16C25.76 18.4177 23.7977 20.38 21.38 20.38Z" fill="url(#paint7_linear_38_51)" stroke="black" stroke-width="2"/>
<path d="M46.18 20.38C43.7623 20.38 41.8 18.4177 41.8 16V5.38C41.8 2.96228 43.7623 1 46.18 1C48.5977 1 50.56 2.96228 50.56 5.38V16C50.56 18.4177 48.5977 20.38 46.18 20.38Z" fill="url(#paint8_linear_38_51)" stroke="black" stroke-width="2"/>
<circle cx="19.76" cy="16.9" r="1" fill="white"/>
<circle cx="21.5" cy="13.5" r="0.5" fill="white"/>
<circle cx="44.76" cy="16.9" r="1" fill="white"/>
<circle cx="46.5" cy="13.5" r="0.5" fill="white"/>
<path fill-rule="evenodd" clip-rule="evenodd" d="M28.81 22.9C28.7772 23.0615 28.76 23.2288 28.76 23.4C28.76 24.7807 29.8793 25.9 31.26 25.9C32.6407 25.9 33.76 24.7807 33.76 23.4C33.76 23.2288 33.7428 23.0615 33.71 22.9H28.81Z" fill="black"/>
<defs>
<linearGradient id="paint0_linear_38_51" x1="13.5" y1="30" x2="48.5637" y2="80.432" gradientUnits="userSpaceOnUse">
<stop stop-color="#8CB1F8"/>
<stop offset="1" stop-color="#CCACEC"/>
</linearGradient>
<linearGradient id="paint1_linear_38_51" x1="0" y1="19" x2="76" y2="19" gradientUnits="userSpaceOnUse">
<stop stop-color="#5787E5"/>
<stop offset="1" stop-color="#01318F"/>
</linearGradient>
<linearGradient id="paint2_linear_38_51" x1="14" y1="35" x2="22" y2="47" gradientUnits="userSpaceOnUse">
<stop stop-color="#92EAE5"/>
<stop offset="1" stop-color="#B18FCC"/>
</linearGradient>
<linearGradient id="paint3_linear_38_51" x1="43" y1="45.5" x2="33.5" y2="36" gradientUnits="userSpaceOnUse">
<stop offset="0.335" stop-color="#92C5EA"/>
<stop offset="1" stop-color="#5975BE"/>
</linearGradient>
<linearGradient id="paint4_linear_38_51" x1="55" y1="35" x2="62.5" y2="47" gradientUnits="userSpaceOnUse">
<stop stop-color="#9992EA"/>
<stop offset="1" stop-color="#B18FCC"/>
</linearGradient>
<linearGradient id="paint5_linear_38_51" x1="14.5" y1="53.5" x2="22" y2="67" gradientUnits="userSpaceOnUse">
<stop stop-color="#92EAE5"/>
<stop offset="1" stop-color="#8FCCBA"/>
</linearGradient>
<linearGradient id="paint6_linear_38_51" x1="43.5" y1="66" x2="33.5" y2="55.5" gradientUnits="userSpaceOnUse">
<stop stop-color="#92EAE5"/>
<stop offset="1" stop-color="#B18FCC"/>
</linearGradient>
<linearGradient id="paint7_linear_38_51" x1="18" y1="12" x2="23" y2="20" gradientUnits="userSpaceOnUse">
<stop stop-color="#000C35"/>
<stop offset="1" stop-color="#002BC3"/>
</linearGradient>
<linearGradient id="paint8_linear_38_51" x1="44" y1="11" x2="48.5" y2="19" gradientUnits="userSpaceOnUse">
<stop stop-color="#040035"/>
<stop offset="0.9999" stop-color="#1000C2"/>
<stop offset="1" stop-color="#0D00A5"/>
</linearGradient>
</defs>
</svg>
