<svg width="76" height="77" viewBox="0 0 76 77" fill="none" xmlns="http://www.w3.org/2000/svg">
<path d="M76 67C76 72.5228 71.5228 77 66 77H10C4.47715 77 0 72.5228 0 67V30H76V67Z" fill="url(#paint0_linear_46_53)"/>
<path d="M0 18C0 12.4772 4.47715 8 10 8H66C71.5229 8 76 12.4772 76 18V30H0V18Z" fill="url(#paint1_linear_46_53)"/>
<rect x="12" y="35" width="12" height="12" rx="4" fill="url(#paint2_linear_46_53)" stroke="black" stroke-width="2"/>
<rect x="32" y="35" width="12" height="12" rx="4" fill="url(#paint3_linear_46_53)" stroke="black" stroke-width="2"/>
<rect x="52" y="35" width="12" height="12" rx="4" fill="url(#paint4_linear_46_53)" stroke="black" stroke-width="2"/>
<rect x="12" y="54" width="12" height="12" rx="4" fill="url(#paint5_linear_46_53)" stroke="black" stroke-width="2"/>
<rect x="32" y="54" width="12" height="12" rx="4" fill="url(#paint6_linear_46_53)" stroke="black" stroke-width="2"/>
<g filter="url(#filter0_b_46_53)">
<path d="M2 30H74V68C74 71.866 70.866 75 67 75H9C5.13401 75 2 71.866 2 68V30Z" fill="#240000" fill-opacity="0.6"/>
</g>
<rect x="1.5" y="9.5" width="73" height="66" rx="8.5" stroke="black" stroke-width="3" stroke-linejoin="round"/>
<path d="M2 30H53" stroke="black" stroke-width="2" stroke-linecap="round"/>
<path d="M59 30L74 30" stroke="black" stroke-width="2" stroke-linecap="round"/>
<path d="M21.38 20.38C18.9623 20.38 17 18.4177 17 16V5.38C17 2.96229 18.9623 1 21.38 1C23.7977 1 25.76 2.96228 25.76 5.38V16C25.76 18.4177 23.7977 20.38 21.38 20.38Z" fill="url(#paint7_linear_46_53)" stroke="black" stroke-width="2"/>
<path d="M46.18 20.38C43.7623 20.38 41.8 18.4177 41.8 16V5.38C41.8 2.96228 43.7623 1 46.18 1C48.5978 1 50.56 2.96228 50.56 5.38V16C50.56 18.4177 48.5978 20.38 46.18 20.38Z" fill="url(#paint8_linear_46_53)" stroke="black" stroke-width="2"/>
<circle cx="19.76" cy="16.9" r="1" fill="white"/>
<circle cx="21.5" cy="13.5" r="0.5" fill="white"/>
<circle cx="44.76" cy="16.9" r="1" fill="white"/>
<circle cx="46.5" cy="13.5" r="0.5" fill="white"/>
<path fill-rule="evenodd" clip-rule="evenodd" d="M28.81 22.9C28.7772 23.0615 28.76 23.2288 28.76 23.4C28.76 24.7807 29.8793 25.9 31.26 25.9C32.6407 25.9 33.76 24.7807 33.76 23.4C33.76 23.2288 33.7428 23.0615 33.71 22.9H28.81Z" fill="black"/>
<g clip-path="url(#clip0_46_53)">
<path d="M54.53 51.8854C54.53 51.2458 54.5006 50.6183 54.4438 50.0032C54.3155 48.6136 53.1137 47.6667 51.8004 47.6667H39.5C37.9812 47.6667 36.75 48.8979 36.75 50.4167V52.9842C36.75 54.503 37.9812 55.7342 39.5 55.7342H44.2114C44.6093 55.7342 44.9361 55.9196 45.1114 56.1539C45.2734 56.3703 45.312 56.6243 45.1652 56.8964C44.7649 57.6382 44.2311 58.3042 43.5779 58.8726C42.9508 59.4183 42.4696 60.2227 42.4696 61.1575V62.3575C42.4696 63.8763 43.7008 65.1075 45.2196 65.1075H47.9414C48.6248 65.1075 49.3144 64.8553 49.8208 64.3354C52.8339 61.2421 54.53 56.9132 54.53 51.8854Z" fill="#669AFF"/>
<path d="M54.53 51.8854C54.53 51.2458 54.5006 50.6183 54.4438 50.0032C54.3155 48.6136 53.1137 47.6667 51.8004 47.6667H39.5C37.9812 47.6667 36.75 48.8979 36.75 50.4167V52.9842C36.75 54.503 37.9812 55.7342 39.5 55.7342H44.2114C44.6093 55.7342 44.9361 55.9196 45.1114 56.1539C45.2734 56.3703 45.312 56.6243 45.1652 56.8964C44.7649 57.6382 44.2311 58.3042 43.5779 58.8726C42.9508 59.4183 42.4696 60.2227 42.4696 61.1575V62.3575C42.4696 63.8763 43.7008 65.1075 45.2196 65.1075H47.9414C48.6248 65.1075 49.3144 64.8553 49.8208 64.3354C52.8339 61.2421 54.53 56.9132 54.53 51.8854Z" fill="url(#paint9_linear_46_53)"/>
<path d="M54.53 51.8854C54.53 51.2458 54.5006 50.6183 54.4438 50.0032C54.3155 48.6136 53.1137 47.6667 51.8004 47.6667H39.5C37.9812 47.6667 36.75 48.8979 36.75 50.4167V52.9842C36.75 54.503 37.9812 55.7342 39.5 55.7342H44.2114C44.6093 55.7342 44.9361 55.9196 45.1114 56.1539C45.2734 56.3703 45.312 56.6243 45.1652 56.8964C44.7649 57.6382 44.2311 58.3042 43.5779 58.8726C42.9508 59.4183 42.4696 60.2227 42.4696 61.1575V62.3575C42.4696 63.8763 43.7008 65.1075 45.2196 65.1075H47.9414C48.6248 65.1075 49.3144 64.8553 49.8208 64.3354C52.8339 61.2421 54.53 56.9132 54.53 51.8854Z" stroke="black" stroke-width="1.5" stroke-linecap="round" stroke-linejoin="round"/>
<path d="M37.5 69.2083C41.2722 69.2083 44.5899 68.2182 47.2804 66.4384C48.8159 65.4226 48.6243 63.3314 47.3172 62.3171L44.8225 60.3815C43.8691 59.6417 42.6205 59.664 41.6453 60.1138C40.4747 60.6539 39.0879 60.9713 37.5 60.9713C33.9024 60.9713 30.7638 58.8193 29.2253 55.7322C28.7419 54.7624 27.7642 53.9875 26.5636 53.9875H24.3608C22.8421 53.9875 21.6108 55.2187 21.6108 56.7375V58.6402C21.6108 59.0664 21.7083 59.5 21.921 59.8939L22.5716 59.5427L21.921 59.8939C24.9098 65.4308 30.7527 69.2083 37.5 69.2083Z" fill="#79FFC7"/>
<path d="M37.5 69.2083C41.2722 69.2083 44.5899 68.2182 47.2804 66.4384C48.8159 65.4226 48.6243 63.3314 47.3172 62.3171L44.8225 60.3815C43.8691 59.6417 42.6205 59.664 41.6453 60.1138C40.4747 60.6539 39.0879 60.9713 37.5 60.9713C33.9024 60.9713 30.7638 58.8193 29.2253 55.7322C28.7419 54.7624 27.7642 53.9875 26.5636 53.9875H24.3608C22.8421 53.9875 21.6108 55.2187 21.6108 56.7375V58.6402C21.6108 59.0664 21.7083 59.5 21.921 59.8939L22.5716 59.5427L21.921 59.8939C24.9098 65.4308 30.7527 69.2083 37.5 69.2083Z" fill="url(#paint10_linear_46_53)"/>
<path d="M37.5 69.2083C41.2722 69.2083 44.5899 68.2182 47.2804 66.4384C48.8159 65.4226 48.6243 63.3314 47.3172 62.3171L44.8225 60.3815C43.8691 59.6417 42.6205 59.664 41.6453 60.1138C40.4747 60.6539 39.0879 60.9713 37.5 60.9713C33.9024 60.9713 30.7638 58.8193 29.2253 55.7322C28.7419 54.7624 27.7642 53.9875 26.5636 53.9875H24.3608C22.8421 53.9875 21.6108 55.2187 21.6108 56.7375V58.6402C21.6108 59.0664 21.7083 59.5 21.921 59.8939L22.5716 59.5427L21.921 59.8939C24.9098 65.4308 30.7527 69.2083 37.5 69.2083Z" stroke="black" stroke-width="1.5" stroke-linecap="round" stroke-linejoin="round"/>
<path d="M27.3263 56.1848C28.2729 55.4603 28.581 54.2615 28.3778 53.2019C28.2715 52.6477 28.2137 52.0797 28.2137 51.5C28.2137 50.5687 28.3628 49.6671 28.6232 48.8038C28.7032 48.5386 28.7533 48.2522 28.7533 47.9534V45.8996C28.7533 44.3808 27.5221 43.1496 26.0033 43.1496H23.5895C22.5655 43.1496 21.5737 43.7226 21.1537 44.7246C20.2808 46.8068 19.7917 49.0914 19.7917 51.5C19.7917 53.4643 20.117 55.3465 20.7107 57.1038C21.3051 58.863 23.4043 59.2383 24.7372 58.2L27.2129 56.2716L27.3263 56.1848Z" fill="#FFE978"/>
<path d="M27.3263 56.1848C28.2729 55.4603 28.581 54.2615 28.3778 53.2019C28.2715 52.6477 28.2137 52.0797 28.2137 51.5C28.2137 50.5687 28.3628 49.6671 28.6232 48.8038C28.7032 48.5386 28.7533 48.2522 28.7533 47.9534V45.8996C28.7533 44.3808 27.5221 43.1496 26.0033 43.1496H23.5895C22.5655 43.1496 21.5737 43.7226 21.1537 44.7246C20.2808 46.8068 19.7917 49.0914 19.7917 51.5C19.7917 53.4643 20.117 55.3465 20.7107 57.1038C21.3051 58.863 23.4043 59.2383 24.7372 58.2L27.2129 56.2716L27.3263 56.1848Z" fill="url(#paint11_linear_46_53)"/>
<path d="M27.3263 56.1848C28.2729 55.4603 28.581 54.2615 28.3778 53.2019C28.2715 52.6477 28.2137 52.0797 28.2137 51.5C28.2137 50.5687 28.3628 49.6671 28.6232 48.8038C28.7032 48.5386 28.7533 48.2522 28.7533 47.9534V45.8996C28.7533 44.3808 27.5221 43.1496 26.0033 43.1496H23.5895C22.5655 43.1496 21.5737 43.7226 21.1537 44.7246C20.2808 46.8068 19.7917 49.0914 19.7917 51.5C19.7917 53.4643 20.117 55.3465 20.7107 57.1038C21.3051 58.863 23.4043 59.2383 24.7372 58.2L27.2129 56.2716L27.3263 56.1848Z" stroke="black" stroke-width="1.5" stroke-linecap="round" stroke-linejoin="round"/>
<path d="M37.5 42.0442C39.1907 42.0442 40.727 42.469 42.0622 43.2863C43.1972 43.981 44.8204 44.0532 45.8913 42.9823L47.9121 40.9615C48.992 39.8816 49.0307 38.0161 47.6914 37.0415C44.879 34.995 41.4514 33.7917 37.5 33.7917C31.1887 33.7917 25.668 37.0972 22.5352 42.0676L23.1697 42.4675L22.5352 42.0676C21.7958 43.2407 22.1776 44.7067 23.2009 45.5007L25.3157 47.1417C26.8458 48.3291 28.9321 47.5653 29.8708 46.1782C31.5527 43.6929 34.3497 42.0442 37.5 42.0442Z" fill="#FF7999"/>
<path d="M37.5 42.0442C39.1907 42.0442 40.727 42.469 42.0622 43.2863C43.1972 43.981 44.8204 44.0532 45.8913 42.9823L47.9121 40.9615C48.992 39.8816 49.0307 38.0161 47.6914 37.0415C44.879 34.995 41.4514 33.7917 37.5 33.7917C31.1887 33.7917 25.668 37.0972 22.5352 42.0676L23.1697 42.4675L22.5352 42.0676C21.7958 43.2407 22.1776 44.7067 23.2009 45.5007L25.3157 47.1417C26.8458 48.3291 28.9321 47.5653 29.8708 46.1782C31.5527 43.6929 34.3497 42.0442 37.5 42.0442Z" fill="url(#paint12_linear_46_53)"/>
<path d="M37.5 42.0442C39.1907 42.0442 40.727 42.469 42.0622 43.2863C43.1972 43.981 44.8204 44.0532 45.8913 42.9823L47.9121 40.9615C48.992 39.8816 49.0307 38.0161 47.6914 37.0415C44.879 34.995 41.4514 33.7917 37.5 33.7917C31.1887 33.7917 25.668 37.0972 22.5352 42.0676L23.1697 42.4675L22.5352 42.0676C21.7958 43.2407 22.1776 44.7067 23.2009 45.5007L25.3157 47.1417C26.8458 48.3291 28.9321 47.5653 29.8708 46.1782C31.5527 43.6929 34.3497 42.0442 37.5 42.0442Z" stroke="black" stroke-width="1.5" stroke-linecap="round" stroke-linejoin="round"/>
</g>
<defs>
<filter id="filter0_b_46_53" x="-2" y="26" width="80" height="53" filterUnits="userSpaceOnUse" color-interpolation-filters="sRGB">
<feFlood flood-opacity="0" result="BackgroundImageFix"/>
<feGaussianBlur in="BackgroundImageFix" stdDeviation="2"/>
<feComposite in2="SourceAlpha" operator="in" result="effect1_backgroundBlur_46_53"/>
<feBlend mode="normal" in="SourceGraphic" in2="effect1_backgroundBlur_46_53" result="shape"/>
</filter>
<linearGradient id="paint0_linear_46_53" x1="13.5" y1="30" x2="48.5637" y2="80.432" gradientUnits="userSpaceOnUse">
<stop stop-color="#8CB1F8"/>
<stop offset="1" stop-color="#CCACEC"/>
</linearGradient>
<linearGradient id="paint1_linear_46_53" x1="2.5" y1="11" x2="76" y2="33.5" gradientUnits="userSpaceOnUse">
<stop offset="0.407259" stop-color="#FF7AAA"/>
<stop offset="0.910735" stop-color="#FFF174"/>
</linearGradient>
<linearGradient id="paint2_linear_46_53" x1="14" y1="35" x2="22" y2="47" gradientUnits="userSpaceOnUse">
<stop stop-color="#92EAE5"/>
<stop offset="1" stop-color="#B18FCC"/>
</linearGradient>
<linearGradient id="paint3_linear_46_53" x1="43" y1="45.5" x2="33.5" y2="36" gradientUnits="userSpaceOnUse">
<stop offset="0.335" stop-color="#92C5EA"/>
<stop offset="1" stop-color="#5975BE"/>
</linearGradient>
<linearGradient id="paint4_linear_46_53" x1="55" y1="35" x2="62.5" y2="47" gradientUnits="userSpaceOnUse">
<stop stop-color="#9992EA"/>
<stop offset="1" stop-color="#B18FCC"/>
</linearGradient>
<linearGradient id="paint5_linear_46_53" x1="14.5" y1="53.5" x2="22" y2="67" gradientUnits="userSpaceOnUse">
<stop stop-color="#92EAE5"/>
<stop offset="1" stop-color="#8FCCBA"/>
</linearGradient>
<linearGradient id="paint6_linear_46_53" x1="43.5" y1="66" x2="33.5" y2="55.5" gradientUnits="userSpaceOnUse">
<stop stop-color="#92EAE5"/>
<stop offset="1" stop-color="#B18FCC"/>
</linearGradient>
<linearGradient id="paint7_linear_46_53" x1="29" y1="22.5" x2="19.5" y2="9.5" gradientUnits="userSpaceOnUse">
<stop stop-color="#74FFD5"/>
<stop offset="1" stop-color="#070055"/>
</linearGradient>
<linearGradient id="paint8_linear_46_53" x1="44.5" y1="8" x2="52" y2="22.5" gradientUnits="userSpaceOnUse">
<stop stop-color="#05003F"/>
<stop offset="1" stop-color="#74FFD5"/>
</linearGradient>
<linearGradient id="paint9_linear_46_53" x1="47.5" y1="55" x2="46" y2="66.5" gradientUnits="userSpaceOnUse">
<stop stop-color="#FF7999" stop-opacity="0"/>
<stop offset="1" stop-color="#FF7999"/>
</linearGradient>
<linearGradient id="paint10_linear_46_53" x1="31.5" y1="61" x2="20.5" y2="56.5" gradientUnits="userSpaceOnUse">
<stop stop-color="#669AFF" stop-opacity="0"/>
<stop offset="1" stop-color="#669AFF"/>
</linearGradient>
<linearGradient id="paint11_linear_46_53" x1="25" y1="51.5" x2="19.5" y2="33.5" gradientUnits="userSpaceOnUse">
<stop stop-color="#79FFC7" stop-opacity="0"/>
<stop offset="1" stop-color="#79FFC7"/>
</linearGradient>
<linearGradient id="paint12_linear_46_53" x1="38" y1="41.5" x2="51" y2="39.5" gradientUnits="userSpaceOnUse">
<stop stop-color="#FFE978" stop-opacity="0"/>
<stop offset="1" stop-color="#FFE978"/>
</linearGradient>
<clipPath id="clip0_46_53">
<rect width="37" height="37" fill="white" transform="translate(19 33)"/>
</clipPath>
</defs>
</svg>
